HIERARCHY
ROOT Hips
{
	OFFSET 0.000000 0.000000 0.000000
	CHANNELS 6 Xposition Yposition Zposition Zrotation Yrotation Xrotation 
	JOINT LowerBack
	{
		OFFSET 0.000000 0.000000 0.000000
		CHANNELS 3 Zrotation Yrotation Xrotation
		JOINT Spine
		{
			OFFSET 0.028270 2.035590 -0.193380
			CHANNELS 3 Zrotation Yrotation Xrotation
			JOINT Spine1
			{
				OFFSET 0.056720 2.048850 -0.042750
				CHANNELS 3 Zrotation Yrotation Xrotation
				JOINT Neck
				{
					OFFSET 0.000000 0.000000 0.000000
					CHANNELS 3 Zrotation Yrotation Xrotation
					JOINT Neck1
					{
						OFFSET -0.054170 1.746240 0.172020
						CHANNELS 3 Zrotation Yrotation Xrotation
						JOINT Head
						{
							OFFSET 0.104070 1.761360 -0.123970
							CHANNELS 3 Zrotation Yrotation Xrotation
							End Site
							{
								OFFSET 0.000000 0.000000 0.000000
							}
						}
					}
				}
				JOINT LeftShoulder
				{
					OFFSET 0.000000 0.000000 0.000000
					CHANNELS 3 Zrotation Yrotation Xrotation
					JOINT LeftArm
					{
						OFFSET 3.362410 1.200890 -0.311210
						CHANNELS 3 Zrotation Yrotation Xrotation
						JOINT LeftForeArm
						{
							OFFSET 4.983000 -0.000000 -0.000000
							CHANNELS 3 Zrotation Yrotation Xrotation
							JOINT LeftHand
							{
								OFFSET 3.483560 -0.000000 -0.000000
								CHANNELS 3 Zrotation Yrotation Xrotation
								JOINT LeftFingerBase
								{
									OFFSET 0.000000 0.000000 0.000000
									CHANNELS 3 Zrotation Yrotation Xrotation
									JOINT LeftHandIndex1
									{
										OFFSET 0.715260 -0.000000 -0.000000
										CHANNELS 3 Zrotation Yrotation Xrotation
										End Site
										{
											OFFSET 0.000000 0.000000 0.000000
										}
									}
								}
								JOINT LThumb
								{
									OFFSET 0.000000 0.000000 0.000000
									CHANNELS 3 Zrotation Yrotation Xrotation
									End Site
									{
										OFFSET 0.000000 0.000000 0.000000
									}
								}
							}
						}
					}
				}
				JOINT RightShoulder
				{
					OFFSET 0.000000 0.000000 0.000000
					CHANNELS 3 Zrotation Yrotation Xrotation
					JOINT RightArm
					{
						OFFSET -3.136600 1.374050 -0.404650
						CHANNELS 3 Zrotation Yrotation Xrotation
						JOINT RightForeArm
						{
							OFFSET -5.241900 -0.000000 -0.000000
							CHANNELS 3 Zrotation Yrotation Xrotation
							JOINT RightHand
							{
								OFFSET -3.444170 -0.000000 -0.000000
								CHANNELS 3 Zrotation Yrotation Xrotation
								JOINT RightFingerBase
								{
									OFFSET 0.000000 0.000000 0.000000
									CHANNELS 3 Zrotation Yrotation Xrotation
									JOINT RightHandIndex1
									{
										OFFSET -0.622530 -0.000000 -0.000000
										CHANNELS 3 Zrotation Yrotation Xrotation
										End Site
										{
											OFFSET 0.000000 0.000000 0.000000
										}
									}
								}
								JOINT RThumb
								{
									OFFSET 0.000000 0.000000 0.000000
									CHANNELS 3 Zrotation Yrotation Xrotation
									End Site
									{
										OFFSET 0.000000 0.000000 0.000000
									}
								}
							}
						}
					}
				}
			}
		}
	}
}
}
MOTION
Frames: 12
Frame Time: 0.008333
-1.005397 17.797659 -0.116580 18.091865 77.423082 37.960426 -2.337434 -0.672181 -3.977884 -1.176364 -0.646560 -3.896540 -6.896254 -0.573245 -1.530139 10.204397 -11.052283 -8.390283 -2.721378 -0.205360 -0.175314 0.000000 0.000000 0.000000 4.307342 13.134962 -0.733843 -71.688496 26.175358 25.105962 179.868185 -66.587221 179.958072 6.209753 -4.803810 -0.284618 -0.029707 0.459652 -0.000000 0.000000 0.000000 0.000000 0.000000 0.000000 0.000000 6.937313 -3.279300 -0.968361 84.523730 10.790423 40.416983 178.910428 74.479356 -179.981617 0.946618 9.244380 0.085237 0.004992 -0.748220 -0.000000 0.000000 0.000000 0.000000 0.000000 0.000000 0.000000 
-0.794234 17.797965 -0.080927 17.804485 77.077760 37.632705 -2.400098 -0.710031 -3.984944 -1.184403 -0.680570 -3.900159 -6.886850 -0.610647 -1.534908 10.201257 -11.062602 -8.375181 -2.697355 -0.203764 -0.168719 0.000000 0.000000 0.000000 4.358926 13.105871 -0.736908 -71.885242 26.725174 24.793726 179.854935 -66.570123 179.958141 6.210191 -4.809483 -0.284574 -0.026870 0.455763 -0.000000 0.000000 0.000000 0.000000 0.000000 0.000000 0.000000 6.844698 -3.313141 -0.977508 84.676311 10.858856 40.603485 178.901101 74.473857 -179.980223 1.125305 9.155016 0.100278 0.000482 -0.744591 -0.000000 0.000000 0.000000 0.000000 0.000000 0.000000 0.000000 
-0.585889 17.786344 -0.045491 17.643256 76.753253 37.430778 -2.472026 -0.757287 -3.973188 -1.193505 -0.722173 -3.900957 -6.876234 -0.655410 -1.548186 10.199973 -11.076242 -8.353386 -2.678388 -0.202588 -0.161039 0.000000 0.000000 0.000000 4.400182 13.011182 -0.732889 -72.117846 27.194427 24.477859 179.842498 -66.605026 179.958173 6.202413 -4.819929 -0.284531 -0.023745 0.452603 -0.000000 0.000000 0.000000 0.000000 0.000000 0.000000 0.000000 6.780254 -3.361271 -0.980690 84.792823 10.919223 40.757604 178.900561 74.505530 -179.979873 1.171543 9.094423 0.103649 -0.000363 -0.741685 -0.000000 0.000000 0.000000 0.000000 0.000000 0.000000 0.000000 
-0.380578 17.762553 -0.010339 17.574619 76.450086 37.304462 -2.552596 -0.811214 -3.926778 -1.203835 -0.768150 -3.895619 -6.865477 -0.703945 -1.567338 10.201471 -11.065613 -8.325451 -2.665199 -0.201834 -0.152838 0.000000 0.000000 0.000000 4.462777 12.889464 -0.715605 -72.393620 27.531934 24.194587 179.831179 -66.721354 179.958106 6.199899 -4.836651 -0.285182 -0.020948 0.450367 -0.000000 0.000000 0.000000 0.000000 0.000000 0.000000 0.000000 6.737984 -3.390598 -0.985702 84.876843 10.942407 40.838838 178.910828 74.542254 -179.980542 1.106537 9.056882 0.097537 0.001065 -0.739624 0.000000 0.000000 0.000000 0.000000 0.000000 0.000000 0.000000 
-0.178456 17.726434 0.024543 17.599121 76.161645 37.256022 -2.643312 -0.872094 -3.847138 -1.216022 -0.818833 -3.884985 -6.856869 -0.756639 -1.595146 10.207526 -11.056725 -8.293932 -2.658197 -0.201529 -0.144654 0.000000 0.000000 0.000000 4.529267 12.710819 -0.690060 -72.701794 27.782495 23.919059 179.819669 -66.884157 179.957998 6.189936 -4.852870 -0.285432 -0.017798 0.448731 -0.000000 0.000000 0.000000 0.000000 0.000000 0.000000 0.000000 6.726748 -3.427371 -0.984996 84.930826 10.959748 40.873189 178.926276 74.588074 -179.981951 0.948985 9.041159 0.083545 0.004886 -0.738441 0.000000 0.000000 0.000000 0.000000 0.000000 0.000000 0.000000 
0.020471 17.678083 0.059358 17.734401 75.881161 37.296227 -2.756355 -0.940226 -3.730740 -1.232708 -0.873505 -3.867365 -6.852782 -0.812519 -1.626865 10.224124 -11.033164 -8.263700 -2.658654 -0.201680 -0.138139 0.000000 0.000000 0.000000 4.618418 12.515883 -0.652632 -73.028828 27.904029 23.687758 179.809059 -67.109086 179.957826 6.183019 -4.866945 -0.285678 -0.014901 0.447742 -0.000000 0.000000 0.000000 0.000000 0.000000 0.000000 0.000000 6.753240 -3.450189 -0.983211 84.958413 10.954215 40.832927 178.945795 74.618680 -179.983811 0.746083 9.041395 0.065857 0.009323 -0.738202 -0.000000 0.000000 0.000000 0.000000 0.000000 0.000000 0.000000 
0.216318 17.617593 0.094223 17.978367 75.598737 37.427805 -2.895570 -1.015466 -3.583853 -1.254911 -0.932090 -3.844372 -6.855597 -0.871616 -1.663227 10.254390 -11.004060 -8.238863 -2.667399 -0.202316 -0.134313 0.000000 0.000000 0.000000 4.716137 12.303420 -0.605964 -73.350222 27.912265 23.501646 179.799576 -67.374312 179.957617 6.175346 -4.878330 -0.285820 -0.012159 0.447342 -0.000000 0.000000 0.000000 0.000000 0.000000 0.000000 0.000000 6.826360 -3.465534 -0.976626 84.963165 10.935655 40.723553 178.965314 74.634318 -179.985758 0.538627 9.054729 0.047769 0.013499 -0.738866 0.000000 0.000000 0.000000 0.000000 0.000000 0.000000 0.000000 
0.409196 17.545233 0.129415 18.341916 75.302080 37.667657 -3.071346 -1.097891 -3.415148 -1.284856 -0.994283 -3.817463 -6.867238 -0.933699 -1.702449 10.302883 -10.968891 -8.224276 -2.685258 -0.203442 -0.134517 0.000000 0.000000 0.000000 4.815639 12.090596 -0.550863 -73.638413 27.799124 23.377559 179.792232 -67.674405 179.957368 6.172257 -4.887719 -0.286152 -0.009933 0.447543 -0.000000 0.000000 0.000000 0.000000 0.000000 0.000000 0.000000 6.955434 -3.469706 -0.964341 84.949607 10.902571 40.540485 178.982515 74.635241 -179.987447 0.370111 9.078806 0.033174 0.016241 -0.740392 0.000000 0.000000 0.000000 0.000000 0.000000 0.000000 0.000000 
0.599279 17.461338 0.165308 18.835845 74.977971 38.033954 -3.295803 -1.187370 -3.234750 -1.324854 -1.059459 -3.787867 -6.887954 -0.998259 -1.740563 10.373113 -10.928302 -8.225842 -2.712456 -0.204999 -0.140407 0.000000 0.000000 0.000000 4.912233 11.900224 -0.488248 -73.865638 27.546259 23.337453 179.788210 -68.013088 179.957051 6.186686 -4.894826 -0.287268 -0.008884 0.448331 -0.000000 0.000000 0.000000 0.000000 0.000000 0.000000 0.000000 7.148663 -3.461486 -0.946075 84.920281 10.854217 40.283195 178.996531 74.632841 -179.988625 0.271222 9.113931 0.024663 0.016754 -0.742668 0.000000 0.000000 0.000000 0.000000 0.000000 0.000000 0.000000 
0.786813 17.366353 0.201489 19.346226 74.619327 38.427722 -3.541513 -1.277744 -3.055361 -1.370095 -1.124259 -3.761103 -6.918999 -1.062436 -1.788072 10.457582 -10.884372 -8.239089 -2.749021 -0.207102 -0.150257 0.000000 0.000000 0.000000 4.961321 11.702231 -0.422573 -74.002855 27.203866 23.359170 179.787784 -68.356510 179.956663 6.214757 -4.912393 -0.289568 -0.008888 0.449964 -0.000000 0.000000 0.000000 0.000000 0.000000 0.000000 0.000000 7.398249 -3.439435 -0.916306 84.880664 10.784282 39.954420 179.006401 74.648166 -179.989094 0.262347 9.158016 0.024241 0.014646 -0.745385 0.000000 0.000000 0.000000 0.000000 0.000000 0.000000 0.000000 
0.971970 17.260944 0.238468 19.897961 74.216394 38.882870 -3.824362 -1.368973 -2.889826 -1.423137 -1.187761 -3.736812 -6.956662 -1.125358 -1.833899 10.557484 -10.834685 -8.271600 -2.793517 -0.209518 -0.166340 0.000000 0.000000 0.000000 4.974551 11.540380 -0.353146 -74.033302 26.714567 23.480945 179.792645 -68.743361 179.956112 6.289313 -4.934398 -0.294537 -0.011397 0.452273 -0.000000 0.000000 0.000000 0.000000 0.000000 0.000000 0.000000 7.706340 -3.402919 -0.879191 84.830716 10.687208 39.557314 179.015759 74.707241 -179.988932 0.335336 9.215592 0.031106 0.010056 -0.748310 0.000000 0.000000 0.000000 0.000000 0.000000 0.000000 0.000000 
1.155066 17.146082 0.276011 20.405505 73.767469 39.328720 -4.121764 -1.455885 -2.751463 -1.479613 -1.246963 -3.718482 -6.998286 -1.184450 -1.881649 10.662914 -10.778769 -8.319782 -2.844515 -0.212219 -0.187335 0.000000 0.000000 0.000000 4.925318 11.402129 -0.282623 -73.943686 26.092321 23.693121 179.803432 -69.172811 179.955347 6.422455 -4.967171 -0.302971 -0.016907 0.455332 -0.000000 0.000000 0.000000 0.000000 0.000000 0.000000 0.000000 8.060218 -3.352333 -0.833628 84.771024 10.552669 39.098848 179.028156 74.844899 -179.988313 0.467196 9.288113 0.043365 0.003682 -0.750991 0.000000 0.000000 0.000000 0.000000 0.000000 0.000000 0.000000 
